# xmcd
#
# Track frame offsets: 
#        150
#        13363
#        24385
#        37210
#        45310
#        56978
#        69150
#        79745
#        91208
#        101480
#        112693
#        122363
#        134840
#        148185
#        163385
#        177840
#        185828
#        195355
#        207040
#        218628
#        230215
#        239235
#        249728
#        263255
#
# Disc length: 3699 seconds
#
# Revision: 2
# Processed by: cddbd v1.5.2PL0 Copyright (c) Steve Scherf et al.
# Submitted via: ExactAudioCopy v1.3
#
DISCID=5d0e7118
DTITLE=Various Artist - Lafayette Saturday Night
DYEAR=1992
DGENRE=Cajun
TTITLE0=Aldus Roger - One Bourbon, One Scotch, One Beer (1963)
TTITLE1=Rod Bernhard - Recorded In England (1966)
TTITLE2=Jewel and The Rubies - Kidnapper (1963)
TTITLE3=Jimmy "C" Newman - Allons A Laffayette (1973)
TTITLE4=Lawrence Walker - Lena Mae (1961)
TTITLE5=Shondells - Memphis (1965)
TTITLE6=Eddy Raven - Alligator Bayou (1969)
TTITLE7=Lil Bob and The Lollipops - I Got Loaded (1966)
TTITLE8=Rod Bernhard - A 2 Fee (1963)
TTITLE9=Aldus Roger - Mean Woman (1964)
TTITLE10=Gee Gee Shinn - Come On Over (1969)
TTITLE11=Doc Guidry - Colinda (1966)
TTITLE12=Blackie Farestier - What's Her Name (1973)
TTITLE13=Shondells - Slow Down (1966)
TTITLE14=Rodney Miller - Domino (1977)
TTITLE15=Jimmy "C" Newman - Hippy Tai Yo (1973)
TTITLE16=King Karl - Just Because (1964)
TTITLE17=Aldus Roger - Zydeco Et Pas Sale (1966)
TTITLE18=Rodney Miller - Before I Grow Too Old (1977)
TTITLE19=Cajun Born - I'm Cajun Fool (1989)
TTITLE20=Rufus Neal - Getting Late In The Evening (1969)
TTITLE21=Jewel and The Rubies - Candy Man (1965)
TTITLE22=King Karl - Everybody's Feeling Good (1966)
TTITLE23=Consoling Cluds Of Joy - That's What's Wrong With The Church 
TTITLE23=Tonight (1967)
EXTD=
EXTT0=
EXTT1=
EXTT2=
EXTT3=
EXTT4=
EXTT5=
EXTT6=
EXTT7=
EXTT8=
EXTT9=
EXTT10=
EXTT11=
EXTT12=
EXTT13=
EXTT14=
EXTT15=
EXTT16=
EXTT17=
EXTT18=
EXTT19=
EXTT20=
EXTT21=
EXTT22=
EXTT23=
PLAYORDER=
